# xmcd CD database file
#
# Track frame offsets:
#	150
#	14275
#	27990
#	40926
#	52815
#	71875
#	85154
#	100459
#	114796
#	128717
#	142304
#	157084
#	170122
#	183956
#	198211
#	210941
#	219326
#	232256
#	241998
#	256333
#
# Disc length: 3615 seconds
#
# Revision: 0
# Processed by: cddbd v1.5.2PL0 Copyright (c) Steve Scherf et al.
# Submitted via: CDex 1.51
#
DISCID=1c0e1d14
DTITLE=Billie Holiday - The Essential Collection -3-
DYEAR=2010
DGENRE=Jazz
TTITLE0=The man I love
TTITLE1=The way you look tonight
TTITLE2=A fine romance
TTITLE3=No regrets
TTITLE4=Billie's blues (I love my man)
TTITLE5=I've got my love to keep me warm
TTITLE6=Yesterdays
TTITLE7=My last affair
TTITLE8=Moanin' low
TTITLE9=The mood that I'm in
TTITLE10=I cried for you
TTITLE11=A sailboat in the moonlight
TTITLE12=Long gone blues
TTITLE13=Carelessly
TTITLE14=I can't get started
TTITLE15=Swing brother swing
TTITLE16=Did I remember?
TTITLE17=I'm gonna lock my heart
TTITLE18=Solitude
TTITLE19=Trav'lin' light
EXTD=YEAR: 2010
EXTT0=
EXTT1=
EXTT2=
EXTT3=
EXTT4=
EXTT5=
EXTT6=
EXTT7=
EXTT8=
EXTT9=
EXTT10=
EXTT11=
EXTT12=
EXTT13=
EXTT14=
EXTT15=
EXTT16=
EXTT17=
EXTT18=
EXTT19=
PLAYORDER=
